#!OML:ASF H:\Pregnant\Project 1\Capture day 1\Session 1\femalepreg.ASF
:FULLY-SPECIFIED
:DEGREES
161
root 3.76385 10.0129 4.1351 47.4762 5.0984 -6.44165
lowerback -11.1936 -0.659429 10.5659
upperback -4.63817 -2.04731 2.42603
thorax 1.09371 -1.13669 -3.62622
lowerneck -45.6851 1.27897 2.33141
upperneck 17.8208 -0.894402 3.7707
head 13.0226 0.428815 1.01292
rclavicle -3.37934e-015 6.36111e-015
rhumerus -57.0512 49.1145 -81.0667
rradius 90.1864
rwrist -15.1383
rhand -53.1629 -34.4665
rfingers 7.12502
rthumb -25.6218 -62.7628
lclavicle -3.37934e-015 6.36111e-015
lhumerus -58.1982 -35.5183 76.4639
lradius 83.6414
lwrist 23.9253
lhand -52.8668 -53.1426
lfingers 7.12502
lthumb -25.3381 -24.8059
rfemur -137.726 -7.48978 32.5028
rtibia 89.9236
rfoot 4.55202 -5.10133
rtoes -6.17604
lfemur -138.621 6.17175 -15.473
ltibia 78.9719
lfoot 15.0527 -4.4573
ltoes -1.42911
162
root 3.76223 10.0056 4.14978 47.898 4.87458 -6.21622
lowerback -11.1964 -0.689135 10.3233
upperback -4.72165 -2.05452 2.35129
thorax 1.01434 -1.14521 -3.56971
lowerneck -45.916 1.2713 2.36496
upperneck 17.7748 -0.913886 3.70167
head 13.0333 0.412482 0.976973
rclavicle -2.20651e-014 -2.42517e-014
rhumerus -57.5521 49.5949 -81.5724
rradius 90.0244
rwrist -15.2215
rhand -53.5218 -34.7956
rfingers 7.12502
rthumb -25.9655 -63.0419
lclavicle -2.20651e-014 -2.42517e-014
lhumerus -58.5966 -35.4239 76.7148
lradius 83.3389
lwrist 23.6098
lhand -53.0934 -54.3894
lfingers 7.12502
lthumb -25.5552 -26.0836
rfemur -138.283 -7.4446 32.3411
rtibia 90.0089
rfoot 4.59032 -5.00123
rtoes -6.15049
lfemur -139.021 6.14986 -15.7569
ltibia 79.081
lfoot 14.9464 -4.38343
ltoes -1.47343
163
root 3.76063 9.99885 4.16429 48.2988 4.64088 -5.99357
lowerback -11.1958 -0.717307 10.0777
upperback -4.78858 -2.06045 2.27454
thorax 0.951069 -1.15147 -3.51358
lowerneck -46.1503 1.26191 2.40752
upperneck 17.7143 -0.934084 3.60941
head 13.0376 0.392272 0.929637
rclavicle 1.13307e-014 -1.86858e-014
rhumerus -58.026 50.0855 -82.0753
rradius 89.8432
rwrist -15.2973
rhand -53.8596 -35.1744
rfingers 7.12502
rthumb -26.2889 -63.3729
lclavicle 1.13307e-014 -1.86858e-014
lhumerus -58.9569 -35.3423 76.9505
lradius 83.0295
lwrist 23.3123
lhand -53.3046 -55.5769
lfingers 7.12502
lthumb -25.7575 -27.3002
rfemur -138.816 -7.39884 32.1785
rtibia 90.0878
rfoot 4.629 -4.89415
rtoes -6.12619
lfemur -139.397 6.13063 -16.0396
ltibia 79.1941
lfoot 14.8352 -4.30281
ltoes -1.51539
164
root 3.75903 9.99287 4.17854 48.6781 4.39796 -5.77329
lowerback -11.192 -0.745241 9.82815
upperback -4.83923 -2.06668 2.19612
thorax 0.903405 -1.15634 -3.45719
lowerneck -46.4712 1.34162 2.63323
upperneck 18.0329 -0.896791 3.33683
head 12.745 0.380713 0.861388
rclavicle 2.80286e-014 7.95139e-016
rhumerus -58.4694 50.5939 -82.5717
rradius 89.6433
rwrist -15.3612
rhand -54.1766 -35.6215
rfingers 7.12502
rthumb -26.5923 -63.7744
lclavicle 2.80286e-014 7.95139e-016
lhumerus -59.2814 -35.2745 77.1702
lradius 82.717
lwrist 23.0396
lhand -53.5037 -56.7434
lfingers 7.12502
lthumb -25.9481 -28.4945
rfemur -139.322 -7.35271 32.013
rtibia 90.1599
rfoot 4.66918 -4.78182
rtoes -6.10619
lfemur -139.748 6.11385 -16.3198
ltibia 79.3097
lfoot 14.7195 -4.21499
ltoes -1.54795
165
root 3.75742 9.98775 4.19246 49.0366 4.14694 -5.55298
lowerback -11.1834 -0.775014 9.57328
upperback -4.87551 -2.07542 2.11641
thorax 0.868256 -1.16121 -3.39943
lowerneck -46.7446 1.31618 2.65154
upperneck 17.9823 -0.92804 3.25077
head 12.7538 0.354907 0.818598
rclavicle 1.31198e-014 -2.0276e-014
rhumerus -58.8836 51.1182 -83.0616
rradius 89.4259
rwrist -15.405
rhand -54.4704 -36.1287
rfingers 7.12502
rthumb -26.8735 -64.2386
lclavicle 1.31198e-014 -2.0276e-014
lhumerus -59.5747 -35.2193 77.3805
lradius 82.3951
lwrist 22.7969
lhand -53.6947 -57.921
lfingers 7.12502
lthumb -26.1311 -29.6991
rfemur -139.802 -7.30865 31.8427
rtibia 90.2243
rfoot 4.7116 -4.66353
rtoes -6.08635
lfemur -140.071 6.09636 -16.599
ltibia 79.4241
lfoot 14.6002 -4.12276
ltoes -1.58462
